<svg width="86" height="12" viewBox="0 0 86 12" fill="none" xmlns="http://www.w3.org/2000/svg">
<path d="M11.25 3.56641C11.25 3.87109 11.1719 4.11719 11.0156 4.30469C10.8594 4.49219 10.6758 4.58594 10.4648 4.58594H8.82422L8.42578 6.95312H9.82031C10.0234 6.95312 10.2031 7.05078 10.3594 7.24609C10.5234 7.43359 10.6055 7.67188 10.6055 7.96094C10.6055 8.26562 10.5273 8.51172 10.3711 8.69922C10.2148 8.88672 10.0312 8.98047 9.82031 8.98047H8.08594L7.79297 10.7031C7.76172 10.8594 7.66406 10.9961 7.5 11.1133C7.34375 11.2305 7.14844 11.2891 6.91406 11.2891C6.71094 11.2891 6.53516 11.2266 6.38672 11.1016C6.24609 10.9766 6.17578 10.8398 6.17578 10.6914L6.44531 8.98047H4.53516L4.23047 10.7031C4.19922 10.8594 4.10156 10.9961 3.9375 11.1133C3.78125 11.2305 3.58594 11.2891 3.35156 11.2891C3.14062 11.2891 2.96094 11.2266 2.8125 11.1016C2.67188 10.9844 2.60156 10.8477 2.60156 10.6914L2.88281 8.98047H1.54688C1.34375 8.98047 1.16016 8.88672 0.996094 8.69922C0.832031 8.50391 0.75 8.25781 0.75 7.96094C0.75 7.66406 0.828125 7.42188 0.984375 7.23438C1.14062 7.04688 1.32812 6.95312 1.54688 6.95312H3.23438L3.63281 4.58594H2.17969C1.98438 4.58594 1.80469 4.49219 1.64062 4.30469C1.47656 4.10938 1.39453 3.86328 1.39453 3.56641C1.39453 3.27734 1.47266 3.03516 1.62891 2.83984C1.79297 2.64453 1.97656 2.54688 2.17969 2.54688H3.96094L4.27734 0.753906C4.30859 0.605469 4.40234 0.472656 4.55859 0.355469C4.72266 0.238281 4.92578 0.179688 5.16797 0.179688C5.37109 0.179688 5.54297 0.242188 5.68359 0.367188C5.82422 0.492187 5.89453 0.625 5.89453 0.765625L5.61328 2.54688H7.53516L7.82812 0.753906C7.85938 0.597656 7.95312 0.460938 8.10938 0.34375C8.27344 0.226562 8.47656 0.167969 8.71875 0.167969C8.94531 0.167969 9.125 0.230469 9.25781 0.355469C9.39844 0.480469 9.46875 0.617188 9.46875 0.765625L9.1875 2.54688H10.4648C10.668 2.54688 10.8477 2.64453 11.0039 2.83984C11.168 3.02734 11.25 3.26953 11.25 3.56641ZM7.19531 4.58594H5.26172L4.86328 6.95312H6.79688L7.19531 4.58594Z" fill="#AF9ECF"/>
<path d="M23.5547 9.96484C23.5547 10.2227 23.4805 10.4375 23.332 10.6094C23.1836 10.7891 23.0156 10.8789 22.8281 10.8789H13.4414C13.2695 10.8789 13.1055 10.7891 12.9492 10.6094C12.8008 10.4375 12.7266 10.2227 12.7266 9.96484C12.7266 9.69922 12.8008 9.48047 12.9492 9.30859C13.0977 9.13672 13.2617 9.05078 13.4414 9.05078H17.3906V7.24609H14.0742C13.8945 7.24609 13.7305 7.16406 13.582 7C13.4414 6.82812 13.3711 6.61328 13.3711 6.35547C13.3711 6.08984 13.4414 5.87109 13.582 5.69922C13.7305 5.51953 13.8945 5.42969 14.0742 5.42969H17.3906V3.64844H15.1875C14.9844 4.10938 14.793 4.45703 14.6133 4.69141C14.3867 4.98828 14.168 5.13672 13.957 5.13672C13.5742 5.13672 13.2656 5.07031 13.0312 4.9375C12.8047 4.79688 12.6914 4.58984 12.6914 4.31641C12.6914 4.23828 12.8711 3.79687 13.2305 2.99219C13.4727 2.44531 13.6758 1.78125 13.8398 1C13.8789 0.828125 13.9805 0.679687 14.1445 0.554688C14.332 0.40625 14.5547 0.332031 14.8125 0.332031C15.0859 0.332031 15.3359 0.40625 15.5625 0.554688C15.7969 0.703125 15.9141 0.886719 15.9141 1.10547C15.9141 1.22266 15.8711 1.46875 15.7852 1.84375H17.3906V0.917969C17.3906 0.722656 17.4883 0.542969 17.6836 0.378906C17.8789 0.214844 18.125 0.132812 18.4219 0.132812C18.7031 0.132812 18.9414 0.214844 19.1367 0.378906C19.3398 0.542969 19.4414 0.722656 19.4414 0.917969V1.84375H22.5586C22.7305 1.84375 22.8906 1.92969 23.0391 2.10156C23.1953 2.26562 23.2734 2.47656 23.2734 2.73438C23.2734 3 23.1992 3.21875 23.0508 3.39062C22.9023 3.5625 22.7383 3.64844 22.5586 3.64844H19.4414V5.42969H22.2773C22.457 5.42969 22.6172 5.51953 22.7578 5.69922C22.9062 5.87109 22.9805 6.08984 22.9805 6.35547C22.9805 6.61328 22.9102 6.82812 22.7695 7C22.6289 7.16406 22.4648 7.24609 22.2773 7.24609H19.4414V9.05078H22.8281C23.0234 9.05078 23.1914 9.13672 23.332 9.30859C23.4805 9.47266 23.5547 9.69141 23.5547 9.96484ZM35.5547 2.45312C35.5547 2.73438 35.4805 2.96484 35.332 3.14453C35.1836 3.32422 35.0039 3.41406 34.793 3.41406H32.4258C32.4258 4.00781 32.4688 4.54688 32.5547 5.03125C32.6406 5.51562 32.7656 6 32.9297 6.48438C33.0547 6.21094 33.1641 5.90234 33.2578 5.55859C33.3516 5.21484 33.4258 4.86719 33.4805 4.51562C33.5195 4.35938 33.6133 4.23047 33.7617 4.12891C33.9102 4.01953 34.0898 3.96484 34.3008 3.96484C34.5117 3.96484 34.7109 4.03516 34.8984 4.17578C35.0859 4.31641 35.1797 4.44531 35.1797 4.5625C35.1797 5.21094 35.0703 5.84375 34.8516 6.46094C34.6328 7.07812 34.3242 7.67188 33.9258 8.24219C34.2305 8.57031 34.5938 8.83984 35.0156 9.05078C35.2969 9.19141 35.4375 9.46094 35.4375 9.85938C35.4375 10.1328 35.3438 10.3906 35.1562 10.6328C34.9688 10.875 34.7617 10.9961 34.5352 10.9961C34.3242 10.9961 34.0586 10.8906 33.7383 10.6797C33.3867 10.4531 33.0391 10.1445 32.6953 9.75391C32.2969 10.1367 31.9219 10.4375 31.5703 10.6562C31.2266 10.8828 30.957 10.9961 30.7617 10.9961C30.5508 10.9961 30.3672 10.8945 30.2109 10.6914C30.0547 10.4883 29.9766 10.25 29.9766 9.97656C29.9766 9.60938 30.1094 9.35156 30.375 9.20312C30.8594 8.97656 31.2969 8.67578 31.6875 8.30078C31.3125 7.60547 31.0195 6.89453 30.8086 6.16797C30.5508 5.28516 30.4219 4.36719 30.4219 3.41406H27.293C27.2227 3.41406 27.1875 3.45313 27.1875 3.53125V4.39844H29.0977C29.3398 4.39844 29.543 4.48047 29.707 4.64453C29.8711 4.80859 29.9531 5.01172 29.9531 5.25391V9.0625C29.9531 9.5625 29.8164 9.96484 29.543 10.2695C29.2695 10.582 28.8633 10.7383 28.3242 10.7383H27.5039C27.3164 10.7383 27.1523 10.6562 27.0117 10.4922C26.8711 10.3359 26.8008 10.1289 26.8008 9.87109C26.8008 9.61328 26.8711 9.39844 27.0117 9.22656C27.1523 9.05469 27.3164 8.96875 27.5039 8.96875H27.7852C28.0039 8.96875 28.1133 8.85938 28.1133 8.64062V6.30859C28.1133 6.23047 28.0703 6.19141 27.9844 6.19141H27.1758C27.1758 7.44141 26.9883 8.53125 26.6133 9.46094C26.2383 10.3828 25.8281 10.8438 25.3828 10.8438C25.1094 10.8438 24.8945 10.7461 24.7383 10.5508C24.5898 10.3555 24.5156 10.0703 24.5156 9.69531C24.6719 9.25781 24.8125 8.75 24.9375 8.17188C25.0703 7.59375 25.1367 6.83984 25.1367 5.91016V2.34766C25.1367 2.10547 25.2188 1.90234 25.3828 1.73828C25.5547 1.56641 25.7617 1.48047 26.0039 1.48047H30.4102V0.90625C30.4102 0.710938 30.5039 0.535156 30.6914 0.378906C30.8789 0.222656 31.1172 0.144531 31.4062 0.144531C31.6953 0.144531 31.9336 0.222656 32.1211 0.378906C32.3164 0.535156 32.4141 0.710938 32.4141 0.90625V1.48047H33.2461L33.1406 0.894531C33.1406 0.707031 33.2266 0.542969 33.3984 0.402344C33.5781 0.253906 33.793 0.179688 34.043 0.179688C34.2148 0.179688 34.3633 0.222656 34.4883 0.308594C34.6133 0.394531 34.6914 0.5 34.7227 0.625L34.8633 1.48047C35.0586 1.50391 35.2227 1.60547 35.3555 1.78516C35.4883 1.96484 35.5547 2.1875 35.5547 2.45312ZM45.2578 9.73047C45.2578 9.94141 45.1719 10.125 45 10.2812C44.8281 10.4453 44.6055 10.5273 44.332 10.5273C43.6211 10.5273 43.1953 10.2773 43.0547 9.77734L42.75 8.62891H39.082L38.7656 9.77734C38.6953 10.043 38.5625 10.2305 38.3672 10.3398C38.1719 10.457 37.8867 10.5156 37.5117 10.5156C37.2305 10.5156 37.0039 10.4336 36.832 10.2695C36.6602 10.1133 36.5742 9.93359 36.5742 9.73047C36.5742 9.65234 36.582 9.59375 36.5977 9.55469L38.7891 1.77344C38.875 1.5 39.0547 1.26172 39.3281 1.05859C39.6016 0.855469 39.8867 0.753906 40.1836 0.753906H41.6367C41.9492 0.753906 42.2344 0.851563 42.4922 1.04688C42.7578 1.24219 42.9375 1.47656 43.0312 1.75L45.2344 9.55469C45.25 9.59375 45.2578 9.65234 45.2578 9.73047ZM42.1875 6.57812L41.0156 2.20703C41.0078 2.18359 40.9883 2.16016 40.957 2.13672C40.9492 2.12891 40.9336 2.12109 40.9102 2.11328C40.8633 2.11328 40.8281 2.14453 40.8047 2.20703L39.6328 6.57812H42.1875ZM48.9609 9.71875C48.9609 9.9375 48.8555 10.1328 48.6445 10.3047C48.4336 10.4844 48.1758 10.5742 47.8711 10.5742C47.5508 10.5742 47.2852 10.4883 47.0742 10.3164C46.8633 10.1445 46.7578 9.94531 46.7578 9.71875V1.46875C46.7578 1.25 46.8594 1.05469 47.0625 0.882812C47.2734 0.710938 47.543 0.625 47.8711 0.625C48.1758 0.625 48.4336 0.710938 48.6445 0.882812C48.8555 1.05469 48.9609 1.25 48.9609 1.46875V9.71875ZM61.2539 3.88281C61.2539 5.11719 60.8594 6.21094 60.0703 7.16406C59.2422 8.15625 58.1523 8.79688 56.8008 9.08594L57.2227 9.95312C57.2695 10.0469 57.293 10.1523 57.293 10.2695C57.293 10.5117 57.1797 10.7227 56.9531 10.9023C56.7344 11.082 56.3984 11.1719 55.9453 11.1719C55.5312 11.1719 55.2305 11.1211 55.043 11.0195C54.8633 10.918 54.7148 10.7422 54.5977 10.4922L52.6289 6.27344C52.5898 6.20312 52.5703 6.10938 52.5703 5.99219C52.5703 5.74219 52.6875 5.51953 52.9219 5.32422C53.1641 5.12109 53.4766 5.01953 53.8594 5.01953C54.2578 5.01953 54.5391 5.07031 54.7031 5.17188C54.875 5.26562 55.0234 5.42969 55.1484 5.66406L55.6641 6.75391C56.6016 6.75391 57.3359 6.47266 57.8672 5.91016C58.375 5.37109 58.6289 4.68359 58.6289 3.84766V3.35547C58.6289 3.27734 58.5898 3.23828 58.5117 3.23828H51.3398C51.1289 3.23828 50.9492 3.12109 50.8008 2.88672C50.6523 2.65234 50.5781 2.35156 50.5781 1.98438C50.5781 1.61719 50.6484 1.31641 50.7891 1.08203C50.9375 0.847656 51.1211 0.730469 51.3398 0.730469H60.3867C60.6289 0.730469 60.832 0.816406 60.9961 0.988281C61.168 1.15234 61.2539 1.35547 61.2539 1.59766V3.88281ZM73.2539 3.88281C73.2539 5.11719 72.8594 6.21094 72.0703 7.16406C71.2422 8.15625 70.1523 8.79688 68.8008 9.08594L69.2227 9.95312C69.2695 10.0469 69.293 10.1523 69.293 10.2695C69.293 10.5117 69.1797 10.7227 68.9531 10.9023C68.7344 11.082 68.3984 11.1719 67.9453 11.1719C67.5312 11.1719 67.2305 11.1211 67.043 11.0195C66.8633 10.918 66.7148 10.7422 66.5977 10.4922L64.6289 6.27344C64.5898 6.20312 64.5703 6.10938 64.5703 5.99219C64.5703 5.74219 64.6875 5.51953 64.9219 5.32422C65.1641 5.12109 65.4766 5.01953 65.8594 5.01953C66.2578 5.01953 66.5391 5.07031 66.7031 5.17188C66.875 5.26562 67.0234 5.42969 67.1484 5.66406L67.6641 6.75391C68.6016 6.75391 69.3359 6.47266 69.8672 5.91016C70.375 5.37109 70.6289 4.68359 70.6289 3.84766V3.35547C70.6289 3.27734 70.5898 3.23828 70.5117 3.23828H63.3398C63.1289 3.23828 62.9492 3.12109 62.8008 2.88672C62.6523 2.65234 62.5781 2.35156 62.5781 1.98438C62.5781 1.61719 62.6484 1.31641 62.7891 1.08203C62.9375 0.847656 63.1211 0.730469 63.3398 0.730469H72.3867C72.6289 0.730469 72.832 0.816406 72.9961 0.988281C73.168 1.15234 73.2539 1.35547 73.2539 1.59766V3.88281ZM85.3008 7.5625C85.3008 8.48438 85.2188 9.14453 85.0547 9.54297C84.8359 10.0508 84.4492 10.3047 83.8945 10.3047H83.5078C83.2266 10.3047 83.0195 10.2344 82.8867 10.0938C82.7227 9.90625 82.6406 9.56641 82.6406 9.07422C82.6406 8.76172 82.6953 8.54297 82.8047 8.41797C82.9219 8.28516 83.082 8.21875 83.2852 8.21875C83.3711 8.21875 83.4336 8.17188 83.4727 8.07812C83.5117 7.97656 83.5312 7.75391 83.5312 7.41016C83.5312 6.80078 83.4961 6.375 83.4258 6.13281C83.3555 5.89062 83.207 5.66016 82.9805 5.44141C82.9336 5.41016 82.8984 5.35156 82.875 5.26562C82.8516 5.17969 82.8398 5.08594 82.8398 4.98438C82.8398 4.80469 82.875 4.66797 82.9453 4.57422C83.1172 4.33984 83.2227 4.10156 83.2617 3.85938C83.3086 3.60937 83.332 3.12891 83.332 2.41797C83.332 2.39453 83.3242 2.37109 83.3086 2.34766C83.2773 2.29297 83.2422 2.26562 83.2031 2.26562H82.5703C82.4688 2.26562 82.418 2.31641 82.418 2.41797V10.5273C82.418 10.707 82.3359 10.8633 82.1719 10.9961C82.0078 11.1367 81.8008 11.207 81.5508 11.207C81.293 11.207 81.0781 11.1367 80.9062 10.9961C80.7422 10.8633 80.6602 10.707 80.6602 10.5273V5.5C80.5117 5.78125 80.3203 5.92188 80.0859 5.92188H75.1289C74.9492 5.92188 74.7891 5.84375 74.6484 5.6875C74.5156 5.52344 74.4492 5.3125 74.4492 5.05469C74.4492 4.80469 74.5156 4.60156 74.6484 4.44531C74.7812 4.28906 74.9414 4.21094 75.1289 4.21094H75.4219C75.4219 3.96875 75.4023 3.71484 75.3633 3.44922C75.332 3.17578 75.2852 2.88281 75.2227 2.57031C75.082 2.52344 74.9648 2.42578 74.8711 2.27734C74.7773 2.12891 74.7305 1.95313 74.7305 1.75C74.7305 1.50781 74.7969 1.30469 74.9297 1.14062C75.0703 0.976562 75.2227 0.894531 75.3867 0.894531H76.5938C76.5938 0.644531 76.6797 0.457031 76.8516 0.332031C77.0234 0.207031 77.2656 0.144531 77.5781 0.144531C77.8984 0.144531 78.1445 0.207031 78.3164 0.332031C78.4961 0.449219 78.5859 0.636719 78.5859 0.894531H79.7578C79.9297 0.894531 80.0781 0.976562 80.2031 1.14062C80.3359 1.30469 80.4023 1.50781 80.4023 1.75C80.4023 1.96875 80.3516 2.15234 80.25 2.30078C80.1484 2.44922 80.0234 2.54688 79.875 2.59375L79.6758 4.21094H80.0859C80.3203 4.21094 80.5117 4.35156 80.6602 4.63281V1.375C80.6602 1.14062 80.7383 0.941406 80.8945 0.777344C81.0586 0.605469 81.2578 0.519531 81.4922 0.519531H84.2695C84.4648 0.519531 84.6523 0.621094 84.832 0.824219C85.0508 1.05078 85.1602 1.32031 85.1602 1.63281C85.1602 2.6875 85.1328 3.42187 85.0781 3.83594C85.0312 4.25 84.9297 4.55859 84.7734 4.76172C84.7422 4.82422 84.7266 4.89062 84.7266 4.96094C84.7266 5.01562 84.7422 5.0625 84.7734 5.10156C84.9609 5.32031 85.0938 5.62109 85.1719 6.00391C85.2578 6.37891 85.3008 6.89844 85.3008 7.5625ZM80.2148 10.0234C80.2148 10.2578 80.1289 10.457 79.957 10.6211C79.793 10.793 79.5898 10.8789 79.3477 10.8789H75.7969C75.5469 10.8789 75.3398 10.7969 75.1758 10.6328C75.0117 10.4688 74.9297 10.2656 74.9297 10.0234V7.39844C74.9297 7.15625 75.0117 6.95312 75.1758 6.78906C75.3477 6.61719 75.5547 6.53125 75.7969 6.53125H79.3477C79.5898 6.53125 79.793 6.61719 79.957 6.78906C80.1289 6.95312 80.2148 7.15625 80.2148 7.39844V10.0234ZM78.1992 2.60547H76.8984C76.9375 2.80078 76.9805 3.06641 77.0273 3.40234C77.082 3.73828 77.1094 4.00781 77.1094 4.21094H78L78.1992 2.60547ZM78.3398 9.16797V8.21875C78.3398 8.14844 78.3008 8.11328 78.2227 8.11328H76.9336C76.8555 8.11328 76.8164 8.14844 76.8164 8.21875V9.16797C76.8164 9.25391 76.8555 9.29688 76.9336 9.29688H78.2227C78.3008 9.29688 78.3398 9.25391 78.3398 9.16797Z" fill="#6B5795"/>
</svg>
